<svg version="1.0" xmlns="http://www.w3.org/2000/svg" width="1706.667" height="1560" viewBox="0 0 1280 1170"><path d="M441 .6c-2.5.2-10.1.8-17 1.4-117.2 10.1-225.1 60.3-304 141.6-32.8 33.8-57.5 68.4-77.5 108.7-56.2 112.9-56.5 242.1-.9 355.3 51.6 105.1 148.3 188 265.4 227.6 58.1 19.7 117.1 28 180.8 25.6 143.8-5.4 277-73 361.8-183.8 45-58.7 72.3-125.9 82-201.5 2.6-19.8 2.6-69.2.1-89-8.6-67.8-29.9-125.3-67.1-181-25.9-38.9-63-78-101.8-107.3-71.9-54.2-153.7-86-246.3-95.7C502.5 1 451.2-.3 441 .6zM496 129c58.6 5 114.8 24.3 161.5 55.5 19.2 12.8 31.1 22.3 46.5 37.1 44.4 42.8 73.1 93.4 85.4 150.4 4.4 20.4 5.9 34.9 6 58 0 22.7-1 34.3-5 54.5-24.6 125.9-134.5 225.1-271.9 245.4-18.3 2.7-28.8 3.4-51 3.5-31.7 0-55.4-2.8-84.6-10-117-28.7-208.8-116-235.9-224.4-6.2-25-8.3-41.9-8.2-68.5 0-52.5 13.7-101.3 40.8-146.1 53.1-87.7 149.2-145.7 257.2-155.3 12.9-1.2 46.1-1.2 59.2-.1zM887.4 713.8c-26.1 35.6-70.2 76-106.1 97.2-4 2.3-7.3 4.6-7.3 5 0 .5 46.7 43.5 103.8 95.6 57 52.1 143.9 131.5 193 176.3 49.1 44.9 89.6 81.7 90.1 81.9 1 .4 119.3-107.8 118.9-108.8-.2-.6-374.9-343-385.4-352.2-2-1.7-2.2-1.6-7 5z"/></svg>